#define noname_width 48
#define noname_height 48
static char noname_bits[] = {
 0xFE,0x00,0x00,0x00,0x00,0x00,0x6F,0x00,0x00,0x00,0x30,0x00,0x7F,0x08,0x00,
 0x00,0x40,0x00,0xDF,0x0F,0x02,0x20,0xD8,0x00,0xDF,0x7F,0xFA,0xFF,0xFF,0x03,
 0xDF,0xFF,0x90,0xFF,0x1F,0x0F,0x73,0xC0,0x63,0x00,0x40,0x1C,0xF1,0x1E,0x03,
 0xFC,0x00,0x70,0xF1,0x1F,0x03,0x70,0x1E,0xC0,0xF8,0x1B,0x03,0x71,0x1E,0x00,
 0x38,0xE6,0x23,0x0D,0x00,0x00,0x38,0x0D,0x03,0x08,0x00,0x00,0xBC,0x09,0x01,
 0x50,0x00,0x00,0xBE,0x81,0x01,0x00,0x00,0x00,0xBF,0xC1,0x00,0x00,0x00,0x00,
 0x5F,0xC1,0x00,0x00,0x00,0x00,0x8F,0xC1,0x00,0x00,0x00,0x00,0xFF,0x80,0x00,
 0x00,0x00,0x00,0xF9,0x01,0x80,0x00,0x00,0x00,0x70,0x41,0x40,0x03,0x00,0x50,
 0x30,0x03,0x00,0x01,0x00,0x00,0x7E,0x2B,0x00,0x01,0x00,0x40,0x46,0x0E,0x90,
 0x01,0x00,0x40,0x00,0x86,0xDE,0x00,0x00,0x00,0x00,0xC6,0x00,0x81,0x00,0x20,
 0x00,0xF4,0xE3,0x01,0x00,0x20,0x00,0xFC,0xFB,0x05,0x00,0x00,0x00,0x78,0xF8,
 0x67,0x00,0x42,0x00,0x98,0x00,0xFE,0x00,0x48,0x00,0x30,0x17,0xF8,0x01,0x40,
 0x00,0x30,0xE7,0x7F,0x01,0xE0,0x00,0x30,0x07,0xCC,0x01,0x80,0x00,0xA0,0xFD,
 0x83,0x01,0x98,0x00,0x60,0x61,0x84,0x00,0xC8,0x00,0xE0,0x01,0x82,0x00,0xE4,
 0x00,0xE0,0x97,0x81,0xC1,0x74,0x00,0xC0,0x1F,0x88,0xC7,0x3C,0x00,0xC0,0x7F,
 0x8E,0xA7,0x1F,0x00,0xC0,0xFD,0x83,0x27,0x0F,0x00,0x80,0xFD,0xB2,0xCF,0x0F,
 0x00,0x80,0x4D,0xE2,0xE7,0x1D,0x00,0x80,0x0D,0xE6,0xEF,0x09,0x00,0x80,0xF7,
 0xFC,0xFF,0x00,0x00,0x00,0xF7,0xFF,0x3F,0x00,0x00,0x00,0xFF,0xFF,0x0F,0x00,
 0x00,0x00,0xFE,0xFF,0x23,0x00,0x00,0x00,0xF8,0xFF,0x00,0x00,0x00,0x00,0xC0,
 0x7F,0x00,0x80};
