#define noname_width 48
#define noname_height 48
static char noname_bits[] = {
 0xFF,0xFF,0xFF,0xFF,0xFF,0xFF,0xFF,0xFF,0xFF,0xFF,0xFF,0xFF,0xFF,0xFF,0xFF,
 0xFF,0xFF,0xFF,0xFF,0xFF,0xFF,0xFF,0xFF,0xFF,0xFF,0xFF,0xFF,0xFF,0xFF,0xFF,
 0xFF,0xFF,0xFF,0xFF,0xFF,0xFF,0x01,0x00,0x00,0x00,0x00,0x80,0xFD,0xF8,0xFF,
 0xFF,0xFF,0xFF,0xFD,0xF8,0xFF,0xFF,0xFF,0xFF,0xFD,0xF8,0xFF,0xFF,0xFF,0xFF,
 0xFD,0xF8,0x03,0x00,0x00,0x80,0xFD,0xF8,0x03,0x00,0x00,0x80,0xFD,0xF8,0x03,
 0x00,0x00,0x80,0xFF,0xF8,0xFB,0xFF,0xFF,0xCF,0x01,0x00,0xFC,0xFF,0xFF,0xFF,
 0x01,0x00,0xFC,0xFF,0xFF,0xFF,0x01,0x00,0xFC,0xFF,0xFF,0xFF,0x01,0x00,0xFC,
 0xFF,0xFF,0xFF,0xFF,0xF8,0x03,0x00,0x00,0x80,0xFD,0xF8,0x03,0x00,0x00,0x80,
 0xFD,0xF8,0x03,0x00,0x00,0x80,0xFD,0xF8,0x03,0x00,0x00,0x80,0xFD,0xF8,0xFF,
 0xFF,0xFF,0xFF,0xFD,0xF8,0xFF,0xFF,0xFF,0xFF,0xFD,0xF8,0xFF,0xFF,0xFF,0xFF,
 0xFF,0xF8,0xFF,0xFF,0xFF,0xFF,0x01,0x00,0x00,0x00,0x00,0x80,0x01,0x00,0x00,
 0x00,0x00,0x80,0x01,0x00,0x00,0x00,0x00,0x80,0x01,0x00,0x00,0x00,0x00,0x80,
 0xFD,0xFF,0xFF,0xFF,0xFF,0xFF,0xFD,0xFF,0xFF,0xFF,0xFF,0xFF,0xFD,0xFF,0xFF,
 0xFF,0xFF,0xFF,0xFD,0xFF,0xFF,0xFF,0xFF,0xFF,0xFD,0xFF,0xFF,0xFF,0xFF,0xCF,
 0x01,0x00,0x00,0x00,0x00,0x80,0x01,0x00,0x00,0x00,0x00,0x80,0x01,0x00,0x00,
 0x00,0x00,0x80,0xFD,0xFF,0xFF,0xFF,0xFF,0xFF,0xFD,0xFF,0xFF,0xFF,0xFF,0xFF,
 0xFD,0xFF,0xFF,0xFF,0xFF,0xFF,0xFF,0xFF,0xFF,0xFF,0xFF,0xFF,0xFF,0xFF,0xFF,
 0xFF,0xFF,0xFF,0xFF,0xFF,0xFF,0xFF,0xFF,0xFF,0xFF,0xFF,0xFF,0xFF,0xFF,0xFF,
 0xFF,0xFF,0xFF,0xFF,0xFF,0xFF,0xFF,0xFF,0xFF,0xFF,0xFF,0xFF,0xFF,0xFF,0xFF,
 0xFF,0xFF,0xFF};
